<?xml version="1.0" encoding="utf-8"?>
<!-- Generator: Adobe Illustrator 27.4.0, SVG Export Plug-In . SVG Version: 6.00 Build 0)  -->
<svg version="1.0" id="Layer_1" xmlns="http://www.w3.org/2000/svg" xmlns:xlink="http://www.w3.org/1999/xlink" x="0px" y="0px"
	 width="300px" height="300px" viewBox="0 0 300 300" style="enable-background:new 0 0 300 300;" xml:space="preserve">
<style type="text/css">
	.Drop_x0020_Shadow{fill:none;}
	.Outer_x0020_Glow_x0020_5_x0020_pt{fill:none;}
	.Blue_x0020_Neon{fill:none;stroke:#8AACDA;stroke-width:7;stroke-linecap:round;stroke-linejoin:round;}
	.Chrome_x0020_Highlight{fill:url(#SVGID_1_);stroke:#FFFFFF;stroke-width:0.3629;stroke-miterlimit:1;}
	.Jive_GS{fill:#FFDD00;}
	.Alyssa_GS{fill:#A6D0E4;}
	.st0{fill:#FFFFFF;}
</style>
<linearGradient id="SVGID_1_" gradientUnits="userSpaceOnUse" x1="0" y1="0" x2="6.123234e-17" y2="-1">
	<stop  offset="0" style="stop-color:#656565"/>
	<stop  offset="0.618" style="stop-color:#1B1B1B"/>
	<stop  offset="0.6292" style="stop-color:#545454"/>
	<stop  offset="0.9831" style="stop-color:#3E3E3E"/>
</linearGradient>
<g>
	<circle class="st0" cx="149.686" cy="150.784" r="128.142"/>
	<g>
		<g>
			<path d="M146.857,192.382c3.262-2.723,6.335-6.174,8.647-9.726c1.346-2.07,2.281-4.32,3.292-6.571
				c0.559-1.233,1.143-2.464,1.714-3.693c0.405-0.867,1.11-2.1,0.382-2.984c-0.066-0.08-0.136-0.144-0.21-0.201
				c-0.785-0.596-2.129-0.084-2.957,0.088c-3.418,0.723-6.998,1.104-10.476,1.428c-1.369,0.123-2.16,0.524-2.851,1.69
				c-2.532,4.279-5.969,8.499-6.992,13.473c-0.423,2.064-1.009,5.502,0.224,7.407C140.013,196.963,144.384,194.448,146.857,192.382z
				 M148.824,172.789c0.008-0.022,0.025-0.047,0.043-0.068c0.195-0.238,0.876-0.234,1.122-0.271c1.239-0.185,2.485-0.193,3.73-0.323
				c0.869-0.093,3.149-0.952,3.266,0.561c0.023,0.327-1.78,0.46-2.041,0.506c-1.122,0.177-2.228,0.423-3.358,0.493
				c-0.58,0.035-1.209,0.066-1.776-0.07C149.514,173.547,148.696,173.175,148.824,172.789z"/>
			<path d="M80.645,220.17c4.195-5.459,7.845-11.839,10.322-18.259c0.018-0.043,0.095-0.181,0.027-0.282
				c-0.057-0.084-0.339,0.08-0.339,0.08c-4.113,1.881-7.913,3.913-11.81,6.215c-5.43,3.208-10.276,7.599-13.83,12.819
				c-1.503,2.205-5.21,7.483-1.959,9.843c2.425,1.749,6.54,0.035,8.667-1.369C75.279,226.864,78.076,223.518,80.645,220.17z
				 M65.095,227.812c-1.57,0.804-1.235-1.248-0.999-2.113c0.526-1.94,1.844-3.706,2.986-5.328c0.064-0.095,0.134-0.189,0.201-0.281
				c1.866-2.592,4.456-5.208,6.772-7.362c1.338-1.245,2.781-1.977,4.396-2.836c1.116-0.59,2.022-1.488,3.085-2.154
				c0.368-0.232,1.667-0.915,2.059-0.67c0.832,0.516-0.808,1.881-1.311,2.175c-3.934,2.298-7.085,5.076-10.207,8.388
				c-1.811,1.92-3.817,3.829-4.988,6.23C66.573,224.916,66.225,227.234,65.095,227.812z"/>
			<path d="M84.764,198.795c1.052-0.664,2.059-1.507,2.859-2.456c1.272-1.515,2.273-3.401,2.875-5.278
				c0.487-1.519,1.019-2.882,0.954-4.294c-0.035-0.769-0.243-1.556-0.736-2.394c-2.22-3.772-8.394-4.808-12.309-1.291
				c-3.866,3.474-4.546,8.665-2.592,12.862C77.17,198.846,82.028,200.517,84.764,198.795z M78.917,184.652
				c0.191-0.294,0.341-0.491,0.573-0.758c0.46-0.532,1.036-0.962,1.683-1.239c2.655-1.143,6.318,0.403,7.559,3.067
				c0.236,0.506,0.67,2.076,0.158,2.327c-0.008,0.004-0.016,0.01-0.025,0.01c-0.45,0.17-1.256-1.048-1.509-1.344
				c-0.884-1.015-1.685-2.066-2.976-2.592c-1.408-0.577-2.325-0.608-3.761-0.115c-0.296,0.103-0.693,0.321-1.021,0.518
				c-0.166,0.101-0.45,0.368-0.693,0.647c-0.115,0.134-0.351,0.631-0.528,0.465C78.52,185.31,78.726,184.948,78.917,184.652z"/>
			<path d="M106.97,99.439c0.152-0.062,0.265-0.197,0.364-0.329c1.137-1.449,2.271-2.902,3.406-4.353
				c0.575-0.738,1.151-1.474,1.726-2.212c0.16-0.201,1.465-1.564,0.639-1.702c-0.023-0.002-0.047-0.002-0.07,0
				c-0.144,0.012-0.271,0.123-0.376,0.226c-0.541,0.524-1.112,1.03-1.607,1.601c-0.584,0.682-1.114,1.408-1.62,2.15
				c-0.535,0.796-1.038,1.607-1.55,2.417c-0.245,0.391-0.522,0.758-0.777,1.141C106.996,98.541,106.131,99.766,106.97,99.439z"/>
			<path d="M159.409,133.13c2.477-1.159,4.569-2.933,6.394-4.951c3.624-3.989,6.133-8.788,8.669-13.501
				c0.298-0.553,4.579-6.764,4.063-8.067c-0.366-0.929-1.957-0.647-3.804-0.471c-1.326,0.125-2.795,0.267-4.25,0.421
				c-2.616,0.275-5.05,0.543-7.664,0.789c-0.329,0.033-0.736,0.304-0.906,0.582c-0.76,1.211-1.433,2.473-2.156,3.708
				c-1.338,2.275-2.912,4.406-4.121,6.758c-0.833,1.622-1.644,3.262-2.257,4.98c-0.962,2.672-2.094,6.957,0.251,9.345
				C155.43,134.56,157.471,134.038,159.409,133.13z M165.178,108.885c1.538-0.243,3.237-0.569,4.869-0.674
				c0.563-0.037,1.124-0.047,1.659-0.02c0.594,0.029,3.399,0.73,1.885,1.667c-0.643,0.403-1.669,0.411-2.392,0.477
				c-1.646,0.146-3.303,0.113-4.953,0.191c-0.658,0.029-2.857,0.22-2.925-0.925C163.279,108.863,164.67,108.968,165.178,108.885z"/>
			<path d="M160.529,99.892c1.352,0.456,3.387-7.825,6.772-12.303c0,0-0.306-0.456-0.6-0.319
				C165.513,87.829,158.673,99.265,160.529,99.892z"/>
			<path d="M193.714,87.726c0.049-0.066,0.195-0.181,0.07-0.419c-0.146-0.277-0.413-0.277-0.617-0.218
				c-0.713,0.21-7.374,11.448-6.088,12.568C187.757,100.251,192.672,89.126,193.714,87.726z"/>
			<path d="M141.665,166.964c0.867,0.386,2.658-4.064,2.863-4.481c0.641-1.295,1.256-2.602,1.878-3.905
				c0.693-1.036,1.256-2.199,1.852-3.292c0.121-0.214,0.24-0.483,0.115-0.695c-0.101-0.172-0.331-0.228-0.526-0.181
				c-0.014,0.004-0.029,0.008-0.045,0.012c-0.201,0.07-0.36,0.226-0.502,0.382C146.238,155.968,139.593,166.056,141.665,166.964z"/>
			<path d="M150.121,20.779c-71.584,0-129.614,58.023-129.614,129.608C20.507,221.972,78.537,280,150.121,280
				c71.582,0,129.614-58.028,129.614-129.614C279.735,78.802,221.703,20.779,150.121,20.779z M56.845,236.543
				c-3.578-5.06-0.179-11.744,2.688-16.262c2.384-3.759,5.321-7.36,8.628-10.348c2.672-2.403,5.775-4.222,8.527-6.518
				c0.174-0.144,0.197-0.403,0.055-0.575c-0.8-0.968-2.23-1.591-3.184-2.376c-2.267-1.889-3.654-4.552-4.01-7.479
				c-0.59-4.84,1.704-10.507,5.329-13.721c2.018-1.788,4.583-2.83,7.294-2.742c3.543,0.115,6.131,1.546,9.007,3.408
				c2.024,1.309,2.323-0.201,3.858-1.052c0.633-0.349,1.632-0.37,2.261-0.027c1.482,0.81,2.105,3.182,2.504,4.67
				c0.425,1.57,0.627,3.184,0.773,4.797c0.01,0.093,0.111,0.146,0.191,0.093c0.592-0.385,2.526-1.441,2.727-1.579
				c3.554-2.425,5.529-6.271,7.185-10.11c0.6-1.383,1.433-2.762,2.95-3.274c0.608-0.205,1.293-0.201,1.872,0.07
				c1.449,0.678,1.513,2.296,1.25,3.65c-0.822,4.289-4.076,7.553-5.494,11.604c-0.713,2.043-0.588,4.616,1.883,5.687
				c0.765,0.331,1.628,0.417,2.454,0.277c2.413-0.405,4.115-2.199,5.562-4.039c3.342-4.252,7.286-7.925,10.336-12.441
				c1.011-1.494,2.195-2.929,2.707-4.696c0.754-2.618-1.143-2.923-3.241-3.549c-1.03-0.306-1.823-1.021-1.346-1.996
				c0.345-0.703,1.346-1.357,2.152-1.505c1.342-0.249,2.756-0.13,4.141-0.066c1.284,0.062,1.811-0.995,2.405-1.95
				c0.738-1.196,1.342-2.458,2.031-3.679c1.231-2.187,2.353-4.435,3.603-6.614c0.877-1.54,1.883-3.147,3.358-4.178
				c0.76-0.528,2.481-0.565,3.28-0.134c3.038,1.665,0.832,6.517-0.191,8.721c-0.526,1.139-1.176,2.21-1.735,3.326
				c-0.413,0.835-1.225,2.195-0.927,3.163c0.376,1.235,2.234,0.462,3.067,0.36c1.017-0.13,2.039-0.257,3.054-0.382
				c2.795-0.349,5.58-0.74,8.375-1.048c2.882-0.316,4.557-4.485,5.849-6.618c1.317-2.195,2.643-4.392,4.112-6.495
				c0.935-1.336,2.592-4.47,4.698-3.208c1.032,0.619,1.963,1.732,2.479,2.842c1.128,2.425-0.119,4.715-0.906,6.982
				c-0.251,0.73-0.559,1.443-0.867,2.148c-0.15,0.341-0.3,0.68-0.45,1.021c-0.109,0.255-0.181,0.387,0.171,0.38
				c0.277-0.006,0.549-0.101,0.822-0.144c0.399-0.064,0.795-0.117,1.196-0.169c0.802-0.099,1.603-0.183,2.403-0.282
				c1.41-0.183,2.812-0.362,4.216-0.543c2.709-0.341,5.416-0.682,8.123-1.013c1.106-0.138,2.253-0.3,3.352-0.053
				c1.083,0.243,2.129,1.044,2.672,2.018c0.298,0.536,0.401,1.227,0.113,1.77c-0.197,0.37-0.555,0.633-0.946,0.793
				c-0.744,0.31-1.585,0.298-2.376,0.335c-0.691,0.031-1.381,0.047-2.072,0.068c-1.377,0.043-2.756,0.097-4.121,0.296
				c-4.528,0.67-9.004,1.57-13.518,2.337c-2.15,0.362-4.293,1.885-5.718,3.457c-2.214,2.442-3.88,5.307-5.601,8.098
				c-1.714,2.771-3.463,5.792-3.463,9.148c-0.004,5.576,6.047,8.338,10.91,6.464c1.846-0.711,3.804-2.051,5.584-3.036
				c1.786-0.987,3.41-2.261,4.82-3.732c2.516-2.627,4.359-5.798,5.954-9.045c0.863-1.747,1.64-3.535,2.452-5.307
				c0.249-0.551,0.97-2.925,1.64-4.002c0.136-0.218-0.031-0.497-0.292-0.483c-2.419,0-4.881,0.099-7.278,0.44
				c-1.336,0.189-2.653,0.485-3.995,0.637c-1.017,0.117-2.057,0.236-3.083,0.265c-0.397,0.01-0.82,0.02-1.211-0.078
				c-0.179-0.047-0.843-0.21-0.621-0.549c0.053-0.082,0.171-0.162,0.253-0.214c0.179-0.115,0.368-0.206,0.569-0.284
				c0.452-0.173,0.935-0.275,1.416-0.349c1.116-0.173,2.242-0.166,3.36-0.273c2.043-0.199,4.082-0.376,6.121-0.571
				c0.96-0.101,1.92-0.193,2.879-0.286c1.56-0.152,3.075-0.547,4.604,0.014c1.35,0.499,2.503,1.056,3.315,2.6
				c0.257,0.489,0.103,1.503-0.203,2.105c-1.494,2.89-3.307,5.627-4.602,8.593c-1.13,2.586-2.382,6.369-1.502,9.148
				c1.023,3.233,3.796,3.535,5.94,1.176c1.221-1.348,3.523-5.196,5.93-3.233c0.06,0.051,0.121,0.103,0.183,0.154
				c2.499,2.273-0.216,5.334-2.218,6.904c-2.674,2.097-5.739,4.127-9.148,2.327c-1.237-0.654-2.366-1.56-3.373-2.524
				c-1.157-1.114-1.918-2.511-3.734-2.09c-1.389,0.327-2.417,1.515-3.615,2.216c-2.308,1.342-4.561,2.766-6.957,3.936
				c-2.3,1.122-4.846,2.152-7.352,2.339c-4.795,0.354-10.914-2.577-11.814-8.464c-0.115-0.777-0.136-2.335-1.038-1.381
				c-0.448,0.473-0.835,0.989-1.235,1.502c-0.816,1.04-1.833,1.947-2.797,2.847c-1.221,1.137-2.39,2.314-3.683,3.361
				c-2.037,1.661-4.431,3.136-7.126,3.262c-2.366,0.117-5.241-0.902-7.136-2.325c-1.698-1.266-2.742-2.828-3.428-4.819
				c-1.7-4.929-5.636-0.294-7.901,1.694c-2.91,2.557-5.71,6.014-9.769,6.612c-1.013,0.148-2.17,0.027-3.149-0.228
				c-1.998-0.512-3.952-1.751-4.226-3.967c-0.189-1.509,0.645-5.471-1.889-5.514c-1.568-0.027-2.877,1.568-3.626,2.762
				c-1.165,1.831-2.041,3.802-2.915,5.779c-0.251,0.569-0.499,1.135-0.75,1.698c-1.196,2.652-2.45,5.258-3.878,7.788
				c-5.524,9.767-12.375,19.862-22.189,25.73c-0.816,0.489-1.673,0.972-2.563,1.392c-1.49,0.697-3.069,1.202-4.694,1.198
				C61.371,239.379,58.035,238.23,56.845,236.543z M68.12,199.159c0.232-0.111,0.483,0.29,0.602,0.428
				c0.214,0.243,0.417,0.538,0.647,0.769c0.456,0.446,0.984,0.66,1.507,1.028c0.216,0.15,0.456,0.341,0.604,0.477
				c0.142,0.132,0.249,0.29,0.154,0.485c-0.172,0.23-1.175-0.047-1.652-0.356c-0.565-0.372-1.038-0.812-1.525-1.396
				c-0.154-0.187-0.275-0.425-0.358-0.639C67.997,199.693,67.886,199.276,68.12,199.159z M98.746,133.229
				c1.848,1.63,4.756,2.45,7.288,2.053c3.192-0.497,6.54-4.181,4.927-7.405c-1.424-2.842-4.131-4.417-3.597-7.82
				c0.631-3.989,4.271-7.502,8.314-7.944c2.44-0.263,4.676,0.633,5.685,2.621c0.46,0.902,0.561,1.936,0.6,2.935
				c0.041,1.173-0.475,3.671,0.939,3.87c4.359,0.614,9.82-13.588,13.746-8.456c1.798,2.347-1.221,5.529-2.59,7.319
				c-2.438,3.19-7.623,10.291-3.531,14.134c3.176,2.984,7.769-1.285,9.87-3.632c3.712-4.154,5.841-9.37,8.194-14.346
				c1.1-2.325,3.644-5.732,2.645-8.427c-0.633-1.708-2.804-0.763-4.166-0.781c-1.726-0.027-3.739-0.382-4.059-2.376
				c-0.526-3.258,7.586-2.17,9.224-2.75c3.301-1.161,4.518-6.579,5.971-9.38c1.556-2.999,3.027-6.059,4.929-8.863
				c1.321-1.959,3.159-5.183,5.736-5.543c2.273-0.31,3.983,2.029,3.453,4.67c-0.44,2.174-0.878,3.591-1.618,5.722
				c-1.243,3.584-2.978,6.984-4.491,10.462c-0.323,0.732-0.672,1.455-1.102,2.376c-0.091,0.193,0.062,0.415,0.275,0.401
				c1.102-0.072,1.996-0.121,2.894-0.197c3.511-0.288,7.033-0.45,10.527-0.898c1.523-0.197,2.551-1.254,3.272-2.435
				c1.075-1.772,1.671-3.741,2.544-5.603c1.805-3.87,4.203-9.356,8.421-11.138c3.28-1.385,4.639,1.965,4.511,4.602
				c-0.158,3.219-2.15,5.977-3.619,8.733c-0.674,1.276-1.755,3.065-0.516,4.37c0.869,0.917,2.257,0.726,3.387,0.604
				c1.459-0.156,2.916-0.249,4.372-0.413c1.506-0.166,5.35-1.404,6.674-0.107c0.789,0.773,1.26,2.503,0.44,3.436
				c-1.081,1.231-3.716,0.999-5.196,1.067c-1.883,0.09-3.739,0.471-5.619,0.643c-2.37,0.216-4.828,0.014-7.171,0.409
				c-2.382,0.403-3.765,2.499-4.865,4.45c-1.424,2.532-2.526,5.241-3.911,7.798c-1.657,3.04-3.675,6.043-4.875,9.302
				c-0.894,2.421-0.841,5.36,1.761,6.678c2.571,1.301,4.867-0.269,6.731-1.979c2.193-2.016,4.259-4.22,6.067-6.583
				c1.903-2.466,3.381-5.198,4.963-7.87c1.208-2.045,2.413-4.096,3.753-6.055c0.423-0.627,1.278-1.346,1.932-1.35
				c1.426-0.006,2.783,0.483,3.545,1.95c0.984,1.883-0.504,4.368-1.424,5.987c-1.065,1.858-2.31,3.642-2.986,5.695
				c-0.479,1.445-0.935,2.933-1.061,4.462c-0.201,2.514,0.695,5.087,3.052,6.289c2.154,1.098,4.82,0.725,7.054,0.076
				c1.579-0.458,4.076-1.418,5.348,0.214c1.416,1.811,0.337,4.546-1.618,5.494c-2.888,1.4-7.596,2.621-10.714,1.338
				c-2.388-0.981-4.479-2.995-5.81-5.161c-0.828-1.348-1.827-4.972-3.922-4.123c-0.999,0.399-1.862,1.496-2.612,2.222
				c-0.859,0.828-1.745,1.718-2.719,2.398c-3.821,2.662-8.844,4.331-12.457,1.402c-1.056-0.855-2.113-1.971-2.875-3.099
				c-0.832-1.235-0.962-2.177-1.745-3.157c-0.123-0.154-0.347-0.181-0.495-0.043c-0.672,0.612-2.471,2.3-2.639,2.452
				c-1.194,1.073-2.448,2.117-3.765,3.032c-2.491,1.729-5.71,3.048-8.78,2.717c-2.917-0.318-5.198-1.459-6.99-4.063
				c-0.401-0.58-1.428-2.894-2.107-3.12c-0.867-0.288-1.617,1.447-2.07,1.959c-0.391,0.442-0.978,1.094-1.41,1.498
				c-1.792,1.704-3.856,3.126-6.119,4.117c-1.33,0.584-2.222,0.756-3.455,0.958c-1.188,0.187-2.542,0.152-3.716-0.14
				c-0.721-0.183-1.472-0.522-2.115-0.892c-2.407-1.4-4.024-3.319-3.732-7.089c0.105-1.293,1.831-5.031,0.337-5.87
				c-2.937-1.65-6.624,5.101-7.9,6.704c-1.05,1.328-2.222,2.559-3.558,3.601c-4.55,3.547-7.956,5.35-13.97,4.026
				c-2.074-0.452-4.374-1.829-5.751-3.356c-3.215-3.554-4.257-7.864-4.403-12.492c-0.012-0.499-0.027-0.972-0.133-1.447
				c-0.037-0.144-0.199-0.216-0.329-0.148c-1.502,0.775-3.344,1.784-4.698,2.46c-1.819,0.911-3.806,1.681-5.648,2.524
				c-1.075,0.489-8.4,3.88-7.547,0.234c0.296-1.264,2.505-2.388,3.572-2.949c3.256-1.718,6.569-3.13,9.662-5.185
				c9.268-6.158,13.014-15.902,19.209-24.664c2.294-3.247,13.509-21.219,18.298-13.25c1.595,2.653,0.516,6.172-0.798,8.71
				c-2.187,4.207-5.599,7.968-8.98,11.241C104.335,109.391,88.102,123.867,98.746,133.229z M138.457,108.655
				c0.686,0.438,0.915,0.851,0.072,1.079c-0.093,0.025-0.325,0.025-0.629-0.008c-1.065-0.099-2.984-0.508-2.602-1.071
				C135.884,107.802,137.783,108.23,138.457,108.655z M137.187,103.679c0.327-0.265,0.713-0.423,1.124-0.493
				c1.379-0.234,3.023,0.557,3.673,1.733c0.553,1.007-0.731,1.928-1.529,2.255c-1.073,0.448-2.329,0.345-3.247-0.403
				C136.251,106,136.247,104.444,137.187,103.679z M142.997,108.881c0.349-0.843,1.891-0.53,2.563-0.444
				c1.052,0.142,2.08,0.364,3.14,0.391c0.216,0.002,0.374,0.226,0.282,0.423c-0.746,1.583-3.63,1.642-4.992,1.036
				C143.525,110.078,142.746,109.496,142.997,108.881z M203.402,107.599c-0.314,0.693-1.287,0.822-1.934,0.882
				c-1.301,0.121-2.598,0.113-3.899,0.175c-0.637,0.025-1.27,0.068-1.905,0.152c-0.859,0.115-3.395,0.793-3.987-0.193
				c-0.989-1.638,6.711-1.646,7.533-1.72C199.824,106.836,204.247,105.712,203.402,107.599z M224.058,144.564
				c-0.968,0.282-2.896,1.05-3.459-0.247c-0.477-1.054,0.76-2.01,1.402-2.631c1.885-1.819,3.274-3.956,4.016-6.474
				c0.257-0.859,0.604-1.918,1.663-1.998c0.964-0.074,2.115,0.877,2.425,1.765c0.09,0.257,0.15,0.518,0.179,0.785
				C230.707,139.269,227.339,143.581,224.058,144.564z M230.666,140.062c0.294-0.563,0.729-2.59,1.564-2.594
				c1.284-0.004,0.064,2.479-0.201,2.964c-1.482,2.658-3.607,4.692-6.54,5.621c-0.721,0.23-2.491,0.783-2.848,0.674
				c-0.267-0.082-0.387-0.432-0.319-0.588c0.362-0.89,1.928-0.512,3.19-1.044C227.776,144.152,229.581,142.22,230.666,140.062z
				 M221.319,198.357c0.403-0.976,2.006-0.553,1.595,0.438c-1.313,3.19-5.221,5.734-8.702,4.769
				c-1.028-0.284-0.592-1.881,0.44-1.591C217.187,202.675,220.344,200.715,221.319,198.357z M217.588,198.953
				c0,0-5.541,2.769-6.333-2.374c-0.793-5.936,4.152-6.622,4.347-6.604c0.253,0.027,3.369,0.072,4.557,3.636
				C221.345,197.175,217.588,198.953,217.588,198.953z M216.145,141.789c-1.453,1.153-4.281,1.515-6.057,1.92
				c-2.228,0.504-4.411,0.499-6.786,0.351c-1.887-0.119-3.817-0.393-5.671-1.428c-0.588-0.329-2.214-1.887-1.484-2.547
				c1.063-0.958,3.416,1.383,4.25,1.803c1.402,0.705,3.176,0.798,4.721,0.89c3.089,0.181,6.285-0.084,8.994-1.712
				c0.604-0.364,1.924-1.39,2.577-0.746c0.088,0.082,0.126,0.187,0.138,0.3C216.848,141.037,216.402,141.585,216.145,141.789z
				 M194.928,135.399c-0.088,1.007-1.541,1.827-2.236,2.38c-3.891,3.085-8.365,5.422-13.454,5.362
				c-2.405-0.026-6.419-0.302-7.146-3.165c-0.097-0.376-0.236-0.746,0.134-0.834c0.288-0.066,0.91,0.275,1.155,0.413
				c1.453,0.818,2.477,1.657,4.187,1.928c1.615,0.257,3.282,0.119,4.892-0.131c2.629-0.415,5.225-1.542,7.35-3.128
				c1.178-0.875,2.041-2.115,3.229-2.976C193.556,134.869,195.043,134.1,194.928,135.399z M170.137,135.796
				c-0.378,1.665-2.331,2.705-3.747,3.763c-2.917,2.181-5.313,2.228-8.774,2.943c-0.407,0.084-1.934,0.526-2.364,0.582
				c-2.002,0.271-4.121,0.171-5.86-0.906c-0.374-0.232-2.571-1.831-1.959-2.489c0.444-0.468,2.61,0.853,3.046,1.024
				c1.223,0.471,2.666,0.713,3.965,0.789c3.079,0.185,6.228-0.387,9.011-1.718c1.342-0.643,2.544-1.455,3.615-2.497
				c0.758-0.742,1.496-1.823,2.585-2.045C169.971,135.175,170.209,135.477,170.137,135.796z M125.523,144.177
				c-1.541-0.695-2.805-1.936-3.656-3.397c-0.331-0.57-0.614-1.194-0.608-1.852c0.004-0.493,0.203-1.001,0.557-1.324
				c0.181-0.165,0.46-0.089,0.533,0.14c0.444,1.385,1.206,2.662,2.197,3.722c0.487,0.518,1.124,1.046,1.786,1.313
				c0.76,0.304,1.985,0.539,2.783,0.59c2.064,0.148,3.823,0.164,5.849-0.354c3.212-0.82,6.314-2.314,8.692-4.861
				c0.109-0.125,0.199-0.271,0.321-0.38c0.582-0.512,1.523-1.371,1.969-0.571c0.138,0.243-0.524,1.182-0.987,1.644
				c-2.822,2.826-6.392,4.733-10.303,5.432C131.713,144.806,128.355,145.454,125.523,144.177z M129.206,170.6
				c0.275,0.158,0.534,0.351,0.808,0.518c0.29,0.169,0.582,0.337,0.88,0.491c0.177,0.088,0.364,0.189,0.563,0.236
				c0,0,0.561,0.134,0,0.728c-0.563,0.592-1.866,1.147-3.463,0.364c-0.491-0.308-0.896-0.816-0.703-1.42
				c0.15-0.473,0.579-0.845,1.036-1.021c0.175-0.068,0.343-0.076,0.512-0.041C128.961,170.481,129.085,170.532,129.206,170.6z
				 M116.782,169.063c-0.068,0.004-0.136,0.004-0.201,0.004c-1.12-0.029-2.02-0.748-2.76-1.556
				c-1.034-1.124-0.921-3.416,0.964-3.599c1.243-0.121,3.007,0.855,3.728,1.837C119.604,167.252,118.627,168.964,116.782,169.063z
				 M117.343,171.141c-0.826,0.368-1.798,0.411-2.682,0.382c-1.017-0.027-2.193-0.44-2.867-1.264
				c-0.111-0.136-0.195-0.288-0.253-0.446c-0.438-1.175,0.339-2.38,1.494-1.488c0.828,0.65,1.622,1.459,2.662,1.753
				c0.573,0.16,1.443-0.226,2.002,0.018C118.352,170.391,117.902,170.896,117.343,171.141z M102.047,145.386
				c-6.374,0.275-12.13-2.249-16.225-7.101c-0.391-0.46-1.075-1.242-1.363-2.039c-0.093-0.259-0.456-1.077-0.123-1.659
				c0.871-1.525,3.827,2.201,5.146,3.897c3.369,4.328,8.39,6.269,15.037,4.896c4.982-1.028,9.146-4.598,12.18-8.677
				c1.098-1.472,2.244-3.554,4.102-4.135c0.374-0.117,0.746,0.154,0.74,0.543c-0.02,0.978-0.471,1.887-1.147,2.943
				C116.475,140.145,109.329,145.071,102.047,145.386z M83.636,129.848c-1.603,0.586-3.504,0.845-5.015,1.65
				c-1.026,0.549-3.712,1.825-4.32,1.648c-0.36-0.101-0.38-0.51-0.13-0.781c0.695-0.754,2.438-1.089,3.504-1.576
				c1.535-0.709,2.904-1.698,4.318-2.614c0.888-0.579,2.851-2.316,3.967-1.636C87.841,127.696,84.485,129.541,83.636,129.848z
				 M203.62,197.65c0,1.317-1.385,2.3-2.039,2.68c-2.372,1.371-5.492,1.418-8.141,1.007c-1.256-0.197-2.477-0.557-3.642-1.058
				c-1.102-0.481-2.283-1.369-3.5-1.482c-2.645-0.249-5.151,2.117-7.451,3.186c-5.428,2.522-9.286,3.77-14.985,2.906
				c-1.807-0.271-4.041-0.816-5.784-2.279c-0.96-0.804-2.436-2.908-2.956-4.123c-0.035-0.086-0.113-0.128-0.185-0.068
				c-5.463,4.633-13.078,7.679-18.237,6.776c-1.872-0.327-3.496-0.738-4.972-1.94c-0.98-0.804-1.954-2.273-2.271-4.152
				c-0.407-2.456-1.301-2.861-0.865-3.184c0.583-0.187,1.032,1.476,1.811,2.81c0.662,1.138,1.634,2.52,2.777,3.171
				c1.856,1.063,3.885,1.689,6.014,1.854c2.951,0.226,5.368-0.037,7.853-1.406c2.775-1.527,4.937-3.41,6.83-5.765
				c0.403-0.497,1.291-1.41,1.918-1.291c0.559,0.101,0.535,1.235,0.715,1.994c0.335,1.41,1.225,2.504,2.384,3.383
				c1.837,1.396,3.543,1.889,4.947,2.086c1.979,0.282,3.739,0.23,5.537,0.047c2.107-0.216,3.568-0.51,4.91-0.954
				c3.389-1.114,5.461-2.086,8.343-3.584c0.103-0.057,1.346-0.742,1.453-0.795c1.021-0.561,1.722-1.157,2.657-2.333
				c0.345-0.436,0.82-0.253,1.085,0.368c1.036,2.421,2.958,3.303,5.447,3.734c2.656,0.46,4.448,0.062,6.302-0.6
				C201.098,198.09,203.616,196.306,203.62,197.65z M103.056,201.559c1.57,3.385,6.166,4.575,9.537,3.662
				c2.201-0.602,4.23-1.952,6.051-3.272c1.35-0.97,3.083-2.456,4.372-3.494c0.871-0.701,1.494-1.449,2.384-1.227
				c0.181,0.047,0.294,0.146,0.349,0.277c0.627,1.418-1.876,2.536-2.773,3.102c-1.728,1.081-3.432,2.22-5.19,3.256
				c-1.12,0.658-2.329,1.252-3.554,1.696c-3.399,1.231-7.94,2.277-10.708-0.658c-1.352-1.426-2.466-4.215-2.466-6.137
				c0-0.516,0.341-2.522,1.4-1.737c0.442,0.329,0.014,1.106,0.01,1.611C102.456,199.559,102.666,200.729,103.056,201.559z
				 M89.502,222.904c-0.199,0.263-0.38,0.534-0.569,0.808c-1.299,1.901-2.452,3.92-3.967,5.662c-1.171,1.34-2.47,2.567-3.648,3.901
				c-0.988,1.124-1.979,2.214-3.073,3.264c-0.97,0.921-1.862,1.35-3.032,1.965c-2.304,1.211-4.318,3.272-7.035,3.492
				c-1.196,0.095-4.024-0.378-1.831-1.687c0.652-0.401,1.369-0.635,2.086-0.865c0.438-0.138,0.88-0.269,1.311-0.427
				c2.327-0.865,4.501-2.187,6.472-3.7c1.173-0.902,2.312-1.872,3.399-2.884c3.065-2.855,5.806-6.106,8.279-9.491
				c0.838-1.155,1.65-2.325,2.431-3.498c0.705-1.067,1.073-1.597,1.765-2.674c0.742-1.157,1.081-1.521,1.716-2.746
				c0.549-1.061,1.558-3.597,1.959-4.715c0.458-1.277,0.991-2.522,1.519-3.77c0.222-0.536,0.366-1.155,0.627-1.696
				c0.084-0.177,0.185-0.349,0.304-0.506c0.388-0.52,0.836-0.637,0.884,0.146c0.029,0.518-0.084,1.087-0.181,1.595
				c-0.808,4.244-2.884,8.384-5.231,11.985C92.324,219.157,90.979,220.883,89.502,222.904z M252.204,185.18
				c-0.32,0.693-0.633,1.354-0.941,2.014c-0.339,0.643-0.672,1.281-1.013,1.936c-0.693,1.299-1.293,2.707-2.053,4.316
				c-3.046,6.809-7.302,14.175-12.63,21.155c-5.356,6.957-11.814,13.47-18.674,18.919c-12.839,10.061-28.7,17.106-43.992,20.549
				c-23.065,4.629-47.264,1.348-67.735-9.066l0.07,0.199c-2.103-1.309-3.309-1.813-4.542-2.512
				c-1.229-0.699-2.557-1.465-4.916-3.136c-1.683-1.229-0.349-0.487,1.35,0.302c1.673,0.802,3.566,1.708,2.699,0.976
				c0.964,0.485,1.825,0.995,2.692,1.35c0.863,0.372,1.669,0.719,2.44,1.052c1.548,0.65,2.923,1.282,4.38,1.749
				c1.432,0.508,2.869,1.017,4.464,1.584c1.613,0.504,3.387,1.052,5.469,1.704c0.775,0.055,2.016,0.203,3.549,0.438
				c0.765,0.119,1.603,0.267,2.495,0.43c0.886,0.172,1.827,0.358,2.822,0.466c0.982,0.134,2.004,0.275,3.038,0.417
				c1.036,0.123,2.068,0.341,3.12,0.386c2.095,0.152,4.148,0.319,6.006,0.403c2.596,0.224,5.013,0.46,7.321,0.481
				c2.306-0.035,4.495-0.025,6.616-0.265c1.059-0.101,2.105-0.195,3.14-0.292c1.032-0.152,2.053-0.302,3.079-0.45
				c2.049-0.255,4.074-0.697,6.168-1.061l-0.612-0.07c11.921-2.174,23.593-6.398,34.061-12.486
				c10.478-6.073,19.762-13.894,27.354-22.664c3.862-5.222,8.131-10.675,11.062-16.818c-1.881,3.903,2.076-3.284,2.102-2.489
				c0,0,0.066-0.125,0.179-0.345c0.121-0.216,0.273-0.539,0.45-0.929c0.352-0.773,0.826-1.807,1.297-2.838
				c0.502-1.023,0.902-2.086,1.221-2.877c0.316-0.789,0.528-1.313,0.528-1.313c0.329-0.512,0.869-1.361,1.311-2.606
				c3.553-8.809,6.215-20.944,6.83-31.539l-0.277,1.089c0.105-1.393,0.239-2.875,0.343-3.905c0.078-1.032,0.175-1.607,0.329-1.169
				c-0.051-1.005-0.084-2.298-0.111-3.724c-0.07-1.427-0.191-2.986-0.292-4.532c-0.091-1.55-0.358-3.075-0.543-4.444
				c-0.111-0.687-0.195-1.332-0.333-1.914c-0.14-0.584-0.277-1.106-0.415-1.554c0,0-0.105-1.005-0.212-2.012
				c-0.055-0.504-0.097-1.009-0.15-1.389c-0.057-0.372-0.099-0.621-0.099-0.621c0.249,3.319,0.029,3.591,0.031,4.99
				c-1.246-7.788-3.432-15.678-6.982-23.848c0.596,1.669,0.804,2.534,1.079,3.373c0.243,0.849,0.563,1.675,0.97,3.397
				c-0.259-1.034-0.582-2.041-0.915-3.042l-0.97-3.013c-1.239-3.426-3.116-8.242-5.891-13.462
				c-2.775-5.223-6.425-10.838-10.63-16.013c-4.197-5.179-8.941-9.9-13.458-13.682c-4.518-3.792-8.791-6.639-11.804-8.585
				c-10.936-6.918-23.12-11.53-35.393-13.518c-12.27-1.994-24.612-1.519-35.756,1.383c-3.535,0.873-6.947,2.031-10.233,3.334
				c-0.029,0.053-0.308,0.169-0.783,0.323c-0.469,0.181-1.126,0.415-1.916,0.676c-0.789,0.261-1.71,0.557-2.705,0.861
				c-0.978,0.347-2.026,0.721-3.095,1.079c-0.532,0.175-1.071,0.354-1.603,0.53c-0.522,0.189-1.044,0.384-1.55,0.571
				c-1.019,0.366-1.998,0.699-2.882,0.972c-1.731,0.608-3.071,0.98-3.576,0.834c-1.381,1.071-2.771,2.32-4.304,3.473
				c-0.775,0.569-1.519,1.221-2.306,1.84c-0.785,0.619-1.589,1.248-2.405,1.887c-0.796,0.666-1.609,1.332-2.444,1.998
				c-0.415,0.333-0.835,0.666-1.256,1.001c-0.413,0.356-0.826,0.707-1.241,1.063c-0.837,0.701-1.685,1.412-2.54,2.129
				c-0.837,0.74-1.675,1.488-2.522,2.244c-3.358,3.044-6.762,6.252-9.874,9.705L72.5,81.856c-0.388,0.432-0.752,0.88-1.134,1.317
				c-0.756,0.882-1.509,1.759-2.257,2.629c-1.398,1.817-2.886,3.55-4.145,5.387c1.065-1.745,2.31-3.381,3.486-5.058
				c0.573-0.851,1.248-1.622,1.866-2.438c0.637-0.8,1.24-1.628,1.901-2.401c0.662-0.777,1.324-1.548,1.979-2.316l0.991-1.151
				l1.03-1.106c0.682-0.738,1.365-1.472,2.043-2.199c0.691-0.717,1.406-1.398,2.101-2.096l-1.761,1.679
				c-0.002-0.419-0.234-0.647-2.279,1.568c0.105,0.169-0.59,1.061-1.484,2.131c-0.845,1.106-1.891,2.39-2.583,3.264
				c-1.106,1.387-1.671,1.922-2.279,2.458c-0.302,0.273-0.602,0.561-0.954,0.972c-0.36,0.409-0.752,0.964-1.227,1.79
				c-0.197-0.012,0.243-0.808-0.259-0.45c-1.552,1.92-1.13,1.346-2.941,3.728c-1.124,1.825-1.04,2.191-0.989,2.421
				c-0.837,1.482-1.687,3.081-2.261,3.778c0.45-1.488-0.337-0.391-1.149,0.754c-0.835,1.128-1.546,2.376-1.242,0.966l-1.426,2.717
				c0.923-1.293,0.966-1.155,0.615,0.111c-0.989,1.77-1.659,3.313-2.417,4.793c-0.777,1.476-1.381,3.001-2.191,4.772
				c-0.384,1.344-0.022,0.397-0.327,1.476c-1.519,3.521-2.456,10.365-3.169,11.528c0.002-0.076-0.004-0.123-0.014-0.156
				c-0.016-0.273-0.018-0.354-0.29,0.321c0.024,0.014,0.057-0.012,0.084-0.014c-0.121,0.296-0.273,0.744-0.409,1.132
				c-0.317,2.177-0.501,3.946-0.981,5.981c-0.199,0.023,0.025-1.774,0.015-2.092l0.164-0.364c0.072-1.102,0.08-1.946,0.099-2.641
				c-0.01-0.697-0.021-1.248-0.027-1.753c-0.082,0.861-0.23,1.794-0.415,2.764c-0.131,0.974-0.3,1.988-0.471,2.995
				c-0.38,2.004-0.598,4.018-0.631,5.664l-0.405,1.412c-0.06,0.479,0.023,0.327,0.051,0.364c-0.294,1.488-0.38-1.285-0.619,0.826
				c0.212-0.28,0.162,1.235,0.097,2.487c-0.051,0.127-0.099,0.518-0.138,1.11c-0.017,0.292-0.033,0.637-0.055,1.017
				c-0.004,0.387,0.012,0.812,0.024,1.27c0.058,1.833,0.136,4.199,0.271,6.559c0.267,2.353,0.533,4.719,0.744,6.585
				c0.251,1.856,0.526,3.202,0.506,3.566c0.091,0.551-0.031-0.037-0.261-1.229c-0.101-0.596-0.284-1.338-0.38-2.174
				c-0.099-0.841-0.205-1.761-0.312-2.697c-0.105-0.943-0.216-1.899-0.316-2.803c-0.051-0.452-0.099-0.894-0.144-1.311
				c-0.035-0.419-0.037-0.816-0.051-1.186c-0.006-0.168-0.012-0.331-0.018-0.485c-0.049,0.495-0.111,1.013-0.088,1.823
				c-0.072-0.187,0.343,2.768,0.76,5.777c0.156,1.513,0.557,3.011,0.754,4.164c0.222,1.153,0.358,1.949,0.321,2.02
				c0.029,0.851,0.033,1.973,0.417,3.023c-0.099-0.666,0.023-0.378,0.142-0.099l0.44,2.291c-0.294-1.211-0.267-0.401-0.534-0.791
				c0.129,1.848,0.82,5.2,1.432,6.797l-0.039-0.39c0.586,1.846,1.198,4.063,1.284,5.233c-0.549-0.51-1.459-5.165-1.544-3.537
				c-1.04-3.445,0.752,1.013-0.131-2.318c-0.76-1.412-0.576,0.74-0.604,1.478c0.23,0.888,0.543,2.107,0.867,3.383
				c0.175,0.637,0.325,1.295,0.526,1.918c0.21,0.614,0.411,1.213,0.596,1.757c0.491,0.974-0.062-0.559,0.575,0.837
				c0.67,1.595,0.518,2.577,1.268,3.833c-0.335-0.144,0.368,1.692,0.684,2.682c0.247,0.28,0.066-0.471,0.832,1.219
				c0.736,2.014,1.056,3.334,1.075,3.646c1.416,2.641,3.165,6.02,2.271,3.272c1.492,3.034,0.45,2.248-0.576,1.449
				c-0.964-0.748-1.909-1.503-0.67,1.015l0.333,0.433c0.241,0.535,0.115,0.456-0.047,0.327c-0.023,0.068-0.099,0.002-0.201-0.148
				c-0.093-0.051-0.127,0.004,0.031,0.391c0.304,0.596-1.169-1.673-2.709-4.041c-0.216-0.331-0.432-0.66-0.647-0.985
				c0.123,0.329,0.171,0.537,0.047,0.491c0.138,0.543-0.38-0.156-0.952-1.363c-0.107-0.393-0.3-0.906-0.489-1.389
				c-0.156-0.278-0.304-0.528-0.438-0.746c-0.281-0.46-0.45-0.699-0.431-0.575c-0.29-0.592-0.105-0.319,0.323,0.39
				c0.035,0.055,0.074,0.125,0.109,0.185c0.119,0.195,0.257,0.425,0.415,0.695c0.004,0.008,0.012,0.023,0.018,0.031
				c-0.356-0.927-0.67-1.724-0.236-1.301c-0.857-1.776-2.053-4.684-2.296-5.237c-0.333-1.25-1.675-4.682-1.414-5.06
				c0.524,1.537,0.976,3.038,1.669,4.491c-0.255-1.387-0.917-2.292-0.894-3.167c-0.362-1.642-0.98-1.971-1.221-2.672
				c-0.715-3.297-1.749-7.481-1.807-9.608c-0.197-0.849-0.395-2.002-0.596-3.134c-0.107-0.561-0.212-1.122-0.308-1.642
				c-0.086-0.518-0.154-0.995-0.247-1.392c0.021,0.495,0.021,1.003,0.068,1.513c0.055,0.512,0.113,1.03,0.171,1.55
				c0.127,1.05,0.255,2.115,0.382,3.18c0.152,1.061,0.234,2.133,0.45,3.147c0.21,1.015,0.409,1.998,0.602,2.927
				c-0.279-1.336-0.826-2.773-1.241-4.076c0.312,0.631,0.393,0.09,0.339-0.347l-0.466-2.353l0.08,0.267l-0.462-2.366
				c0.158,1.132-0.306,0.374-0.715-1.548c0,0-0.017-0.166-0.035-0.331c-0.016-0.162-0.016-0.331-0.016-0.331
				c-0.166-0.689-1.034-4.228-1.766-7.831c-0.282-1.809-0.561-3.622-0.783-5.067c-0.115-0.727-0.212-1.363-0.29-1.862
				c-0.07-0.495-0.082-0.859-0.107-1.036c0.07-0.91,0.045-1.439,0.055-2.185l-0.031-0.035c0.368,0.179-0.057-3.562,0.349-3.617
				c-0.014-1.229,0.078-2.493-0.07-2.684c0.029-1.735,0.249-3.019,0.463-4.322c0.271-1.301,0.524-2.621,0.577-4.468l0.417-0.286
				c0.384-2.479-0.146-1.141,0.545-4.505c0.251-0.861,0.917-3.139,1.455-4.994l0.438-1.955c0.167-0.647,0.36-1.291,0.541-1.932
				c0.372-1.285,0.713-2.577,1.126-3.843c0.875-2.528,1.722-5.054,2.777-7.5c0.96-2.483,2.154-4.861,3.258-7.263
				c1.227-2.351,2.386-4.723,3.726-6.994c-0.294-0.045-0.83,0.896-1.326,1.809c-0.499,0.908-0.88,1.821-1.04,1.642
				c0.483-1.013,1.042-2.002,1.605-2.999c0.561-0.999,1.126-2.006,1.698-3.023c0.614-0.995,1.233-1.994,1.858-3.001
				c0.316-0.504,0.619-1.011,0.947-1.513c0.337-0.491,0.676-0.985,1.013-1.484c2.647-4.016,5.743-7.868,9.008-11.621
				c3.295-3.732,6.931-7.21,10.694-10.478c3.843-3.18,7.82-6.154,11.939-8.692c2.958-1.844,5.58-3.161,8.285-4.322
				c0.672-0.296,1.342-0.594,2.024-0.896c0.695-0.275,1.396-0.557,2.117-0.847c1.43-0.588,2.91-1.235,4.567-1.862l-0.902,0.436
				c0.413-0.14,1.494-0.631,2.914-1.297c1.412-0.686,3.227-1.377,5.015-2.142c1.798-0.73,3.644-1.32,5.103-1.819
				c1.467-0.483,2.598-0.699,2.98-0.703c1.498-0.335,2.516-0.571,3.299-0.691c0.789-0.103,1.328-0.175,1.856-0.245
				c0.53-0.07,1.052-0.148,1.794-0.284c0.368-0.076,0.796-0.162,1.311-0.263c0.518-0.088,1.12-0.187,1.842-0.308
				c0.59,0.055,1.202,0.08,1.952,0.039c0.748-0.039,1.622-0.167,2.752-0.3c1.334-0.171,2.653-0.339,3.975-0.506
				c1.319-0.131,2.645-0.206,3.975-0.306c5.743-0.218,12.229,0.156,18.654,0.904c-1.983-0.458-1.829-0.647-0.197-0.493
				c0.81,0.115,1.977,0.349,3.42,0.701c0.717,0.185,1.511,0.364,2.345,0.641c0.83,0.282,1.718,0.596,2.645,0.95
				c3.009,0.691,3.584,0.458,6.008,1.346c1.334,0.175,2.838,0.557,4.423,0.931c0.789,0.193,1.601,0.378,2.398,0.588
				c0.789,0.234,1.579,0.464,2.343,0.684c6.855,2.565,14.017,6.429,20.796,11.273c6.772,4.869,13.119,10.725,18.779,16.952
				c0.635,0.608,1.204,1.254,1.774,1.856c0.199,0.29,0.865,1.067,1.876,2.195c1.001,1.143,2.259,2.723,3.771,4.524
				c2.894,3.695,6.39,8.614,9.376,13.814c3.044,5.173,5.459,10.651,7.076,14.903c0.389,1.069,0.748,2.057,1.067,2.941
				c0.325,0.884,0.528,1.692,0.732,2.358c0.389,1.344,0.6,2.191,0.58,2.378c0.251,0.557,0.561,1.768,0.664,1.7
				c1.032,3.897,1.644,7.414,2.109,10.961c0.44,3.558,0.744,7.142,0.991,11.247c-0.004-0.183-0.008-0.466-0.014-0.756
				c0.567,7.722,0.21,16.011-1.034,23.946C256.672,171.151,254.565,178.715,252.204,185.18z"/>
			<path d="M51.575,192.207c0.004,0.006,0.004,0.014,0.004,0.021c0.099,0.16,0.189,0.316,0.29,0.491
				C51.768,192.545,51.661,192.368,51.575,192.207z"/>
			<path d="M115.254,123.743c1.792-0.495,2.74-4.785,1.62-6.067c-0.142-0.173-0.306-0.284-0.481-0.354
				C113.524,116.208,110.624,125.034,115.254,123.743z"/>
			<path d="M51.885,191.34c0.043,0.019,0.119,0.095,0.243,0.267c0.002,0.039,0.018,0.109,0.033,0.171
				c0.095,0.152,0.197,0.316,0.31,0.497c-0.382-0.818-0.779-1.591-1.03-2.018l0.249,0.781
				C51.739,191.11,51.803,191.211,51.885,191.34z"/>
			<path d="M52.344,193.498c-0.045-0.07-0.086-0.136-0.127-0.205C52.257,193.363,52.299,193.428,52.344,193.498z"/>
			<path d="M169.379,164.405c0.031,0.014,0.064,0.016,0.099,0.014c0.228-0.01,0.45-0.341,0.569-0.497
				c0.3-0.393,0.551-0.824,0.795-1.25c0.713-1.248,1.342-2.543,1.969-3.831c0.522-1.081,1.034-2.17,1.556-3.25
				c0.506-1.054,1.052-2.084,1.599-3.114c0.086-0.162,0.173-0.376,0.062-0.526c-0.068-0.097-0.193-0.134-0.312-0.121
				c-0.049,0.002-0.099,0.018-0.148,0.037c-0.062,0.025-0.119,0.057-0.174,0.09c-0.38,0.23-0.707,0.543-0.96,0.904
				c-0.251,0.366-0.374,0.793-0.606,1.169c-1.41,2.286-2.838,4.561-3.989,7.005c-0.144,0.308-0.267,0.627-0.39,0.946
				C169.231,162.545,168.627,164.005,169.379,164.405z"/>
			<path d="M55.367,195.907c-0.165-0.193-0.259-0.169-0.269,0.024C55.521,196.452,55.7,196.579,55.367,195.907z"/>
			<path d="M51.885,191.34c-0.152-0.072,0.105,0.656,0.413,1.488c0.214,0.553,0.473,1.135,0.635,1.554
				c1.494,2.212,2.999,4.405,2.553,3.513c0.203,0.405,0.462,0.993,0.65,1.223c-0.053-0.216-0.154-0.464-0.282-0.73
				c-0.195-0.343-0.413-0.727-0.623-1.063l-0.13-0.316c-0.091-0.16-0.181-0.318-0.28-0.483c-0.292-0.491-0.588-0.982-0.826-1.324
				c-0.076,0,0.117,0.427-0.017,0.485c-0.327-0.621-0.787-1.505-1.202-2.292c-0.319-0.676-0.541-1.285-0.617-1.617
				c-0.076-0.124-0.15-0.247-0.216-0.343C51.924,191.4,51.906,191.371,51.885,191.34z"/>
		</g>
	</g>
</g>
</svg>
